<?xml version="1.0" standalone="no"?>
<!DOCTYPE svg PUBLIC "-//W3C//DTD SVG 20010904//EN"
 "http://www.w3.org/TR/2001/REC-SVG-20010904/DTD/svg10.dtd">
<svg version="1.0" xmlns="http://www.w3.org/2000/svg"
 width="1035.000000pt" height="934.000000pt" viewBox="0 0 1035.000000 934.000000"
 preserveAspectRatio="xMidYMid meet">

<g transform="translate(0.000000,934.000000) scale(0.100000,-0.100000)"
fill="#000000" stroke="none">
<path d="M4710 6836 c0 -16 -2 -16 -16 -5 -12 10 -20 10 -35 1 -11 -7 -25 -10
-31 -6 -6 4 -8 3 -5 -3 9 -14 -22 -55 -35 -47 -6 4 -5 10 3 15 10 6 8 9 -9 9
-15 0 -21 -4 -16 -12 5 -7 0 -9 -14 -6 -16 5 -19 2 -14 -11 5 -14 4 -14 -11
-2 -14 11 -17 11 -17 0 0 -9 -3 -10 -8 -3 -11 17 -62 27 -62 12 0 -9 -3 -10
-8 -2 -4 6 -17 10 -29 9 -12 -1 -20 2 -17 6 2 4 0 10 -6 14 -5 3 -10 1 -10 -5
0 -6 -4 -8 -10 -5 -5 3 -10 -3 -10 -14 0 -18 -21 -23 -35 -9 -4 3 -21 2 -38
-3 -45 -13 -49 -12 -42 10 3 11 0 23 -6 27 -8 5 -9 3 -4 -6 6 -10 4 -12 -8 -7
-9 3 -18 1 -21 -6 -2 -7 -5 -5 -5 5 -1 9 -5 19 -10 22 -4 3 -6 -6 -3 -21 3
-18 1 -24 -6 -19 -8 5 -10 1 -5 -10 4 -12 3 -15 -5 -10 -11 6 -17 -12 -13 -37
1 -5 -3 -6 -9 -2 -5 3 -10 0 -10 -7 0 -10 -2 -10 -9 1 -12 19 -31 5 -31 -24 0
-14 -7 -26 -18 -29 -12 -4 -18 -17 -19 -43 -3 -52 -8 -81 -16 -89 -4 -4 -7
-14 -7 -22 0 -12 2 -12 17 -1 15 13 15 12 3 -11 -13 -24 -12 -25 7 -7 31 27
39 21 39 -28 0 -33 -3 -44 -13 -41 -7 3 -12 2 -12 -2 3 -20 -3 -32 -16 -32 -8
0 -15 -7 -15 -16 0 -8 -4 -12 -10 -9 -5 3 -22 -5 -37 -19 -15 -14 -31 -22 -37
-19 -6 4 -2 -4 9 -17 11 -13 14 -20 8 -16 -7 4 -13 2 -13 -3 0 -6 9 -11 21
-11 12 0 23 -8 26 -20 3 -11 13 -20 22 -20 12 -1 11 -5 -8 -20 -14 -12 -18
-20 -10 -20 12 0 12 -2 0 -9 -8 -5 -10 -14 -6 -22 6 -9 4 -11 -8 -6 -9 3 -19
1 -23 -5 -4 -7 -3 -8 4 -4 7 4 12 2 12 -4 0 -7 7 -10 15 -6 8 3 15 1 15 -4 0
-6 -4 -10 -10 -10 -5 0 -10 -10 -10 -22 0 -18 -2 -20 -9 -9 -16 24 -44 -6 -36
-38 5 -20 4 -23 -6 -14 -15 15 -39 6 -39 -16 0 -12 2 -13 9 -3 7 11 11 11 24
-2 8 -9 20 -16 25 -16 8 0 12 -14 13 -54 0 -27 -8 -31 -27 -12 -15 16 -18 16
-36 -4 -12 -12 -27 -19 -35 -15 -13 4 -14 3 -3 -10 7 -8 17 -12 22 -9 6 4 5
-4 -2 -16 -10 -19 -10 -21 7 -16 12 4 22 -1 30 -13 10 -17 9 -18 -17 -16 -22
2 -31 -3 -37 -19 -4 -11 -6 -27 -4 -35 1 -8 -2 -10 -11 -5 -11 6 -11 5 0 -8 8
-10 9 -19 3 -22 -12 -8 -10 -49 2 -57 5 -4 -2 -17 -17 -30 -21 -18 -24 -25
-13 -38 8 -9 8 -12 1 -8 -7 4 -15 0 -18 -9 -4 -10 -2 -13 6 -8 8 5 9 2 5 -10
-5 -13 -3 -17 7 -13 8 3 17 -1 20 -9 3 -8 1 -12 -4 -9 -5 3 -18 1 -27 -4 -10
-6 -14 -11 -10 -11 12 0 -29 -41 -54 -54 -26 -13 -33 -63 -12 -85 11 -11 11
-16 1 -29 -10 -12 -10 -14 0 -8 6 4 12 2 12 -4 0 -6 -6 -13 -14 -16 -14 -6
-15 -16 -1 -48 5 -12 3 -21 -6 -27 -12 -8 -12 -11 1 -19 13 -8 12 -10 -2 -10
-10 0 -18 -7 -18 -16 0 -8 -4 -13 -9 -10 -4 3 -6 -5 -4 -19 4 -21 2 -23 -18
-18 -19 4 -21 3 -9 -6 8 -6 11 -11 6 -11 -6 0 -1 -7 10 -15 19 -14 19 -14 -1
-15 -14 0 -16 -3 -8 -11 14 -14 5 -49 -13 -49 -8 0 -14 -5 -14 -11 0 -5 -4 -7
-10 -4 -5 3 -10 -1 -10 -10 0 -10 5 -13 13 -9 9 6 9 4 -1 -8 -7 -9 -11 -22
-10 -29 2 -8 -2 -13 -9 -12 -8 2 -10 -4 -6 -15 6 -15 5 -16 -12 -2 -19 15 -19
14 -3 -11 16 -26 16 -27 -3 -32 -20 -5 -20 -6 -2 -25 10 -10 22 -17 27 -14 10
6 -35 -80 -47 -89 -9 -6 9 -23 33 -32 12 -4 11 -6 -2 -6 -16 -1 -22 -12 -19
-33 0 -4 -5 -5 -13 -2 -17 6 -31 -27 -15 -37 8 -4 3 -9 -12 -14 -21 -7 -22 -8
-5 -21 11 -8 15 -18 10 -26 -5 -7 -8 -22 -9 -33 0 -16 -6 -19 -26 -17 -27 3
-55 -20 -45 -37 3 -5 -4 -7 -16 -4 -21 4 -21 3 -6 -9 9 -8 18 -21 20 -29 2 -7
10 -20 18 -26 13 -11 13 -14 -4 -24 -15 -9 -16 -13 -5 -20 11 -7 10 -9 -4 -9
-11 0 -15 -4 -11 -12 5 -7 2 -9 -8 -6 -8 4 -21 2 -29 -3 -10 -6 -10 -9 -1 -9
6 0 12 -9 12 -21 0 -13 -4 -18 -12 -13 -7 5 -9 1 -6 -13 4 -16 2 -19 -13 -16
-11 3 -19 0 -19 -6 0 -7 5 -9 10 -6 6 3 10 0 10 -8 0 -9 -7 -13 -17 -11 -12 3
-22 -4 -29 -19 -8 -18 -8 -24 2 -24 7 0 12 3 11 6 -2 7 7 11 25 11 6 0 1 -8
-10 -19 -12 -10 -18 -22 -14 -26 4 -5 0 -6 -9 -2 -14 4 -16 0 -15 -24 1 -19
-3 -29 -12 -29 -7 0 -11 4 -7 9 3 5 1 13 -5 16 -6 4 -9 1 -8 -7 2 -7 -7 -14
-19 -16 -13 -2 -23 -10 -23 -18 0 -8 -6 -14 -12 -14 -8 0 -9 -3 -3 -8 6 -4 12
-16 13 -26 3 -16 1 -18 -11 -8 -7 6 -17 9 -20 5 -13 -13 -7 -18 26 -21 66 -5
65 -4 54 -29 -6 -13 -15 -23 -20 -23 -5 0 -2 -11 7 -25 22 -33 21 -35 -20 -35
-27 0 -35 -4 -31 -14 3 -8 -1 -17 -9 -20 -20 -8 -18 -36 4 -36 9 0 13 -4 7 -8
-5 -4 -17 -16 -25 -26 -14 -18 -13 -19 6 -14 20 5 24 -5 14 -32 -1 -3 -2 -9
-1 -14 1 -5 -4 -6 -11 -3 -8 3 -14 -2 -14 -13 0 -10 4 -17 7 -14 17 10 19 -19
3 -32 -14 -11 -15 -17 -7 -20 19 -8 -3 -44 -27 -44 -10 0 -22 -4 -25 -10 -10
-17 -38 -12 -31 6 3 8 2 13 -3 10 -5 -3 -14 1 -21 9 -8 10 -9 15 -2 15 6 0 9
7 5 16 -5 14 -8 13 -20 -7 -9 -15 -12 -17 -9 -5 4 10 0 24 -7 30 -7 6 -18 23
-25 39 -10 23 -9 27 4 27 11 0 13 6 9 20 -4 13 -2 20 7 20 10 0 9 3 -2 10 -12
8 -12 10 5 10 19 1 19 1 2 11 -10 6 -24 8 -32 5 -8 -3 -17 3 -20 15 -4 10 -11
19 -16 19 -6 0 -7 5 -4 10 3 6 2 10 -3 10 -5 0 -14 12 -20 26 -7 14 -17 22
-23 19 -6 -5 -7 -11 0 -19 7 -8 5 -12 -7 -12 -11 0 -17 8 -17 23 0 13 3 23 6
23 3 0 6 7 6 15 0 8 -3 15 -7 15 -3 0 -15 7 -26 16 -10 8 -12 12 -4 8 13 -7
13 -5 1 9 -7 10 -9 17 -3 17 12 0 9 33 -7 74 -8 19 -8 32 -1 41 10 12 8 13
-44 16 l-24 1 29 29 c17 17 24 29 16 32 -9 3 -9 7 1 20 11 13 10 16 -5 20 -17
4 -17 5 0 6 11 1 17 9 17 24 0 17 -2 19 -9 8 -8 -12 -12 -12 -26 2 -9 10 -21
14 -27 11 -7 -4 -8 -2 -4 4 5 8 -2 10 -24 6 -25 -5 -29 -4 -24 9 3 9 2 22 -3
29 -4 7 -8 22 -8 33 0 11 -6 19 -12 17 -7 -1 -13 2 -13 6 0 4 6 14 13 21 10
11 8 12 -12 6 -15 -5 -21 -3 -17 3 3 6 1 12 -5 14 -8 3 -6 10 5 21 16 16 16
17 -6 18 -13 0 -17 3 -10 6 17 7 15 33 -4 33 -9 0 -12 5 -8 11 4 7 8 26 10 43
1 17 0 25 -3 18 -4 -10 -8 -10 -19 -1 -11 9 -11 13 1 26 19 19 19 29 -1 37
-11 4 -15 2 -11 -8 8 -20 -15 -27 -37 -11 -16 12 -16 14 -1 22 14 8 15 11 1
22 -11 9 -13 19 -6 37 5 13 6 23 2 23 -27 -4 -35 2 -17 15 18 13 18 14 -3 27
-12 8 -22 22 -22 31 0 10 -4 18 -10 18 -5 0 -10 5 -10 10 0 6 7 10 16 10 10 0
14 6 11 14 -3 7 0 19 6 25 8 8 5 11 -11 11 -12 0 -22 5 -22 11 0 5 6 7 13 3 9
-5 9 -4 0 6 -6 7 -9 19 -6 26 3 8 -2 17 -11 20 -9 3 -13 10 -10 15 3 5 -2 9
-10 9 -19 0 -21 17 -4 22 8 3 4 9 -10 17 -12 6 -22 21 -22 31 0 13 -7 20 -19
20 -11 0 -23 5 -26 10 -3 6 -1 10 4 10 6 0 11 5 11 11 0 5 -5 7 -12 3 -7 -4
-8 -3 -4 5 4 6 2 18 -4 26 -6 8 -9 18 -6 24 4 5 -1 17 -10 25 -13 14 -14 16 0
16 8 0 18 4 21 10 3 5 0 7 -9 4 -8 -3 -27 1 -43 9 l-28 15 27 7 c15 4 31 5 35
2 5 -3 15 -2 21 2 14 8 6 41 -10 41 -5 0 -6 -5 -2 -12 4 -7 3 -8 -4 -4 -18 11
-15 15 21 30 29 13 30 14 8 15 -23 1 -21 16 2 16 7 0 13 9 15 19 4 18 3 19
-13 3 -9 -9 -22 -17 -30 -17 -7 0 -15 -4 -17 -9 -6 -16 -48 8 -66 38 -10 16
-18 42 -17 58 0 15 -6 34 -13 42 -8 9 -12 29 -10 53 2 21 1 38 -3 38 -10 0
-18 39 -9 45 10 6 -11 65 -23 65 -5 0 -5 9 -2 20 4 14 2 20 -8 20 -20 0 -28
25 -14 40 9 10 7 11 -9 6 -15 -4 -24 -2 -27 9 -4 8 -13 12 -21 9 -17 -7 -16
17 3 39 14 17 5 87 -11 87 -5 0 -6 -4 -3 -10 9 -15 -19 -12 -41 5 -18 13 -18
14 6 9 24 -5 24 -5 6 10 -20 16 -20 16 0 16 14 0 16 2 6 9 -8 4 -14 12 -15 17
-1 5 -6 7 -12 6 -5 -2 -6 0 -2 5 5 4 14 8 20 8 7 0 12 11 11 23 0 16 4 21 14
17 12 -4 13 -3 2 10 -7 8 -16 12 -21 9 -5 -3 -9 -1 -9 5 0 5 6 12 13 14 7 3 5
6 -5 6 -10 1 -18 6 -18 12 0 5 4 8 9 5 5 -4 8 2 7 11 -2 9 -8 19 -15 21 -6 2
-10 -2 -9 -8 4 -16 -47 -34 -70 -25 -14 5 -14 7 -2 15 10 7 11 10 3 10 -7 0
-13 6 -13 14 0 8 -6 17 -12 19 -10 4 -9 6 1 6 11 1 11 5 -3 20 -9 10 -16 22
-15 27 1 5 1 22 0 38 -1 21 -5 27 -16 22 -8 -3 -16 -1 -16 4 -1 6 -2 14 -3 19
0 5 -4 13 -8 17 -4 4 0 13 10 21 9 8 12 12 6 9 -18 -9 -32 16 -29 47 2 15 0
27 -3 27 -14 0 -5 64 9 68 11 3 11 1 -1 -8 -12 -9 -12 -11 -1 -8 20 6 26 28 7
28 -8 0 -18 5 -22 12 -5 7 -2 9 7 4 8 -4 5 -1 -5 8 -10 8 -23 13 -28 10 -14
-9 -38 29 -27 42 6 8 2 13 -13 17 -18 5 -20 9 -10 19 17 17 15 29 -3 22 -11
-4 -13 -2 -9 9 3 8 0 18 -7 23 -7 4 -10 3 -6 -3 4 -6 0 -16 -8 -23 -8 -7 -15
-19 -15 -26 0 -19 -16 -18 -24 2 -3 8 -2 12 4 9 17 -10 11 12 -7 26 -11 10
-14 10 -9 2 14 -24 -17 -13 -42 15 -14 15 -22 20 -19 10 5 -13 0 -16 -25 -13
-16 3 -37 10 -46 17 -14 12 -14 10 -3 -11 11 -20 10 -26 -3 -39 -12 -13 -16
-13 -16 -3 0 9 -8 5 -21 -10 -19 -22 -22 -23 -47 -8 -28 16 -57 15 -46 -2 3
-5 1 -9 -5 -9 -5 0 -12 6 -14 13 -3 7 -6 5 -6 -5 -1 -10 -6 -18 -12 -18 -5 0
-8 4 -5 8 3 5 -1 9 -9 9 -8 0 -13 -5 -12 -11 1 -6 -9 -10 -23 -9 -14 1 -19 0
-12 -3 15 -7 16 -30 2 -39 -6 -4 -18 -1 -27 6 -23 20 -45 17 -75 -10 -23 -21
-47 -29 -95 -33 -10 -1 -10 -4 0 -17 9 -12 9 -13 0 -7 -8 4 -13 2 -13 -4 0 -7
-7 -9 -16 -6 -8 3 -12 2 -9 -4 3 -6 1 -10 -4 -10 -6 0 -11 -9 -11 -20 0 -11
-7 -23 -15 -26 -8 -4 -12 -10 -9 -15 9 -16 -15 -37 -36 -32 -16 4 -18 0 -16
-31 3 -32 1 -35 -13 -24 -9 7 -13 9 -9 4 4 -5 3 -17 -3 -28 -9 -17 -7 -18 18
-12 27 7 27 6 11 -12 -11 -12 -15 -28 -11 -42 6 -25 22 -28 43 -9 8 6 7 3 -3
-9 -26 -31 -20 -49 7 -20 26 29 41 34 32 11 -3 -8 -1 -15 4 -15 12 0 9 -22 -5
-32 -5 -4 -15 -2 -23 4 -10 9 -12 8 -10 -3 2 -8 10 -19 18 -26 10 -9 11 -12 3
-13 -7 0 -13 -7 -13 -16 0 -8 3 -13 8 -11 4 3 13 -1 20 -9 9 -10 9 -14 1 -14
-6 0 -9 -7 -5 -15 3 -8 2 -14 -2 -12 -4 1 -8 -2 -9 -8 -1 -5 7 -9 17 -7 12 2
20 -2 20 -10 0 -8 9 -22 21 -31 11 -10 18 -24 15 -32 -3 -8 0 -16 7 -18 9 -3
8 -9 -3 -22 -9 -12 -10 -16 -2 -11 13 8 72 -13 72 -26 0 -5 -3 -7 -7 -6 -34 8
-106 -33 -83 -47 6 -4 9 -2 8 3 -3 9 2 12 18 12 4 0 -1 -11 -10 -25 -15 -23
-15 -25 1 -26 11 0 13 -3 6 -6 -7 -2 -13 -11 -13 -19 0 -11 9 -8 33 10 19 15
40 26 47 26 16 0 39 -30 40 -52 0 -11 5 -15 15 -12 8 4 15 1 15 -7 0 -7 -3 -9
-7 -6 -8 9 -34 -13 -28 -23 3 -4 -2 -13 -10 -20 -17 -14 -20 -30 -4 -30 5 0 8
4 4 9 -8 14 9 21 25 10 12 -7 12 -9 1 -9 -11 0 -11 -3 0 -17 8 -9 13 -25 11
-36 -2 -11 1 -17 7 -13 6 4 8 -1 6 -13 -2 -11 3 -22 11 -25 8 -3 14 -11 14
-18 0 -10 -2 -10 -9 1 -5 8 -11 9 -15 3 -3 -5 4 -22 16 -38 18 -22 19 -27 6
-21 -14 5 -16 2 -8 -17 5 -15 5 -27 -3 -35 -6 -6 -8 -12 -4 -12 4 -1 10 -2 15
-3 4 -1 14 -5 22 -10 10 -6 9 -2 -3 11 -18 21 -18 22 3 33 12 6 24 9 27 6 3
-3 -2 -8 -11 -12 -15 -6 -15 -7 0 -18 13 -10 14 -17 5 -34 -14 -27 -14 -29 5
-36 8 -3 12 -2 9 3 -3 5 -1 12 5 16 19 12 23 -27 6 -62 -9 -20 -15 -38 -12
-40 9 -9 46 18 40 29 -4 6 -3 8 4 4 5 -3 12 -2 14 3 1 5 12 3 23 -6 19 -14 19
-15 -5 -11 -19 2 -25 -1 -25 -17 0 -11 -4 -23 -10 -27 -5 -4 0 -8 12 -8 24 0
39 -15 24 -25 -6 -3 -7 -13 -4 -21 4 -11 9 -12 16 -5 15 15 27 14 27 -4 0 -8
-4 -15 -10 -15 -5 0 -10 -5 -10 -11 0 -6 7 -9 15 -5 9 3 15 0 15 -10 0 -8 -4
-12 -10 -9 -6 3 -7 -1 -4 -10 4 -9 9 -14 11 -11 11 11 31 -19 21 -31 -15 -19
0 -52 22 -48 26 5 25 1 -2 -25 l-23 -21 28 5 c29 5 34 -3 15 -22 -7 -7 -8 -12
-2 -12 6 0 15 5 21 11 7 7 12 6 16 -5 3 -8 2 -18 -3 -21 -5 -3 -6 -13 -3 -22
4 -9 2 -14 -3 -10 -6 3 -11 -4 -11 -16 -2 -15 0 -18 6 -9 6 11 10 10 15 -3 4
-11 12 -15 23 -11 10 4 14 4 10 0 -4 -4 5 -18 19 -31 14 -12 21 -23 17 -23 -4
0 -1 -5 7 -10 13 -9 13 -10 0 -10 -13 0 -13 -1 0 -10 13 -8 13 -11 1 -19 -8
-5 -11 -16 -8 -25 3 -8 2 -18 -3 -21 -6 -4 -10 -12 -10 -18 0 -8 2 -9 8 -1 11
17 52 36 52 25 0 -5 -10 -13 -22 -17 -22 -7 -22 -7 -3 -15 11 -4 15 -8 9 -8
-33 -2 -17 -81 16 -81 10 0 24 -8 31 -17 8 -9 9 -14 3 -10 -7 4 -14 0 -18 -8
-3 -8 2 -18 11 -23 11 -7 12 -11 4 -17 -9 -5 -9 -10 0 -21 6 -7 9 -20 6 -29
-4 -8 -1 -17 5 -21 6 -4 8 -3 5 3 -9 15 16 23 34 12 8 -5 9 -9 3 -9 -15 0 -25
-38 -13 -46 5 -3 9 0 9 7 0 6 9 0 21 -15 11 -14 19 -34 18 -43 -1 -10 1 -26 6
-35 4 -10 4 -26 -1 -35 -4 -10 -6 -22 -5 -28 2 -5 3 -20 3 -33 0 -12 5 -25 11
-29 6 -3 7 -1 3 5 -5 8 3 12 23 12 16 0 33 -5 37 -12 5 -7 3 -8 -7 -3 -12 8
-12 6 0 -8 12 -15 11 -17 -8 -17 -13 0 -21 -6 -21 -17 0 -14 -3 -14 -22 3
l-23 19 20 -23 c17 -21 21 -22 31 -7 10 14 12 14 17 1 4 -9 2 -18 -4 -22 -6
-3 -8 -12 -5 -20 3 -8 2 -14 -3 -14 -4 0 -6 -11 -3 -25 2 -14 8 -25 12 -25 5
0 6 8 3 19 -3 14 2 20 22 25 15 4 30 5 33 1 3 -3 -1 -5 -9 -6 -8 0 -6 -4 6 -9
19 -8 19 -9 1 -9 -13 -1 -17 -6 -13 -21 4 -15 0 -20 -15 -20 -10 0 -16 -5 -13
-10 4 -6 11 -8 16 -5 10 7 7 -45 -5 -63 -4 -8 -2 -10 7 -6 22 8 29 -12 11 -30
-14 -15 -14 -16 3 -16 10 0 14 -4 8 -8 -5 -4 -11 -13 -13 -20 -1 -8 12 -2 31
12 30 23 35 24 53 11 10 -8 14 -15 7 -15 -6 0 -16 -14 -22 -31 -13 -38 -14
-52 -3 -45 5 3 15 -6 22 -19 7 -13 18 -22 23 -18 6 3 7 1 3 -5 -4 -7 0 -12 10
-12 16 0 16 -1 0 -19 -14 -16 -15 -19 -2 -24 9 -4 16 1 18 10 3 14 5 14 18 -2
8 -11 10 -16 4 -12 -13 8 -47 -30 -38 -44 3 -6 17 -9 30 -6 16 3 24 0 24 -9 0
-8 -4 -14 -10 -14 -5 0 -7 -7 -4 -15 4 -10 0 -13 -15 -10 -18 3 -20 1 -11 -14
5 -10 6 -22 2 -26 -4 -5 1 -5 12 -1 13 5 17 2 13 -9 -6 -15 12 -38 43 -55 11
-6 17 -17 14 -25 -4 -8 -1 -15 7 -15 7 0 9 -3 6 -6 -3 -4 -2 -15 3 -24 7 -14
5 -19 -11 -23 -17 -5 -19 -11 -13 -41 4 -24 2 -36 -5 -36 -6 0 -11 -6 -11 -14
0 -13 4 -13 27 -1 31 16 43 12 43 -16 0 -11 5 -17 10 -14 6 3 10 1 10 -4 0 -6
-6 -11 -13 -11 -7 0 -13 -9 -13 -20 0 -11 6 -20 13 -20 18 0 16 -25 -3 -44 -8
-9 -12 -21 -8 -27 4 -8 3 -9 -4 -5 -7 4 -12 2 -12 -3 0 -6 7 -11 16 -11 8 0
12 -5 9 -10 -3 -6 1 -13 9 -16 9 -3 13 -10 10 -15 -3 -5 -2 -14 2 -21 5 -8 10
-6 16 8 6 14 7 11 3 -9 -4 -19 -2 -26 5 -22 14 9 13 -28 -2 -43 -9 -9 -9 -12
1 -12 7 0 9 -4 6 -10 -3 -5 -1 -10 4 -10 6 0 10 -6 8 -12 -1 -8 9 -13 25 -13
14 1 24 -3 22 -7 -11 -17 -11 -77 -1 -75 6 1 12 -4 13 -10 1 -7 3 -16 4 -20 1
-5 2 -12 1 -16 -1 -5 3 -6 8 -2 6 3 19 -3 30 -14 12 -12 23 -16 30 -10 7 6 8
5 2 -2 -5 -6 -7 -19 -3 -28 5 -13 3 -14 -10 -4 -15 13 -28 8 -28 -11 0 -6 5
-4 10 4 9 13 10 13 11 0 1 -8 1 -18 0 -22 0 -5 4 -8 9 -8 6 0 10 -9 10 -20 0
-11 3 -19 8 -19 21 4 24 -3 6 -16 -14 -11 -15 -14 -4 -15 10 0 16 -12 18 -37
1 -20 8 -43 14 -50 8 -10 8 -17 2 -21 -14 -9 -24 -38 -17 -46 3 -3 12 2 20 12
12 16 13 16 7 0 -4 -12 -1 -18 7 -18 12 0 12 -2 0 -9 -8 -5 -9 -11 -3 -15 6
-3 13 -2 17 4 3 5 11 10 17 10 6 0 5 -7 -3 -17 -16 -19 -16 -21 7 -38 16 -11
16 -15 5 -29 -7 -9 -19 -16 -27 -16 -7 0 -15 -4 -18 -9 -4 -5 4 -7 16 -4 23 6
22 6 -2 -16 -14 -12 -19 -20 -12 -16 6 3 12 2 12 -4 0 -5 -6 -12 -12 -14 -7
-3 1 -6 17 -6 22 -1 26 -4 15 -10 -8 -6 -18 -7 -22 -5 -4 3 -8 -4 -8 -15 0
-12 5 -21 11 -21 5 0 7 5 4 11 -4 6 2 13 14 16 12 3 21 10 21 15 0 5 5 6 10 3
6 -3 10 -1 10 4 0 6 5 11 12 11 6 0 1 -11 -11 -24 -19 -20 -21 -28 -12 -45 9
-16 9 -27 0 -42 -9 -17 -8 -20 2 -14 19 13 59 14 59 3 0 -6 -8 -7 -17 -4 -10
4 -14 4 -10 0 4 -4 0 -16 -10 -26 -9 -10 -13 -19 -10 -19 4 -1 12 -2 18 -3 10
-1 22 -16 36 -44 0 -2 9 -5 20 -6 11 -2 17 -10 15 -21 -2 -10 2 -22 10 -26 10
-7 10 -9 1 -9 -7 0 -13 -5 -13 -11 0 -6 7 -9 15 -5 16 6 19 -3 9 -28 -3 -9
-10 -13 -15 -10 -15 9 -10 -3 7 -21 13 -12 14 -19 5 -28 -16 -16 -14 -44 4
-51 8 -3 15 -15 15 -26 0 -11 6 -20 13 -21 6 0 2 -5 -10 -11 -29 -14 -35 -52
-12 -77 18 -19 17 -20 -10 -29 -21 -7 -27 -16 -26 -33 1 -13 -3 -27 -9 -31 -6
-5 -2 -8 11 -8 15 0 21 -5 17 -14 -3 -8 -1 -17 5 -21 6 -3 11 -11 11 -16 0 -6
-4 -7 -10 -4 -5 3 -10 1 -10 -4 0 -6 10 -12 23 -12 15 -1 17 -3 5 -6 -9 -2
-19 -11 -22 -19 -3 -8 -2 -13 3 -9 5 3 16 2 25 -1 15 -6 15 -7 0 -19 -10 -7
-14 -17 -10 -24 5 -8 12 -9 19 -2 8 6 18 5 30 -3 21 -16 22 -26 3 -26 -9 0
-12 -7 -9 -20 3 -11 9 -20 14 -20 4 0 6 -9 4 -20 -3 -17 -1 -19 16 -9 18 9 19
8 10 -9 -11 -22 -6 -32 18 -32 12 0 13 2 3 9 -10 6 -10 10 2 20 8 7 20 10 26
6 15 -9 12 -33 -6 -43 -11 -6 -13 -11 -5 -16 6 -4 11 -1 11 6 0 10 3 9 9 -2 6
-8 7 -18 4 -24 -3 -5 -1 -6 6 -2 14 9 43 -12 35 -25 -3 -5 3 -9 12 -9 10 0 14
-3 11 -7 -10 -9 14 -34 26 -26 7 4 8 0 3 -12 -6 -15 -4 -16 10 -4 14 11 15 10
11 -17 -4 -25 -1 -30 16 -31 25 -2 36 -13 42 -43 7 -35 15 -37 15 -4 l1 29 27
-30 c15 -16 26 -28 25 -26 -2 2 5 10 15 17 14 10 21 10 41 -3 13 -8 21 -10 17
-5 -12 19 14 24 39 8 24 -16 25 -15 31 9 4 18 13 25 30 25 13 0 24 5 24 11 0
5 4 7 10 4 6 -3 10 -1 10 4 0 6 5 11 11 11 5 0 8 -4 5 -9 -9 -14 20 -21 33 -8
7 7 17 12 24 12 15 0 16 27 2 37 -6 4 -12 -2 -15 -14 -3 -12 -12 -24 -19 -26
-10 -3 -12 0 -8 12 4 9 2 16 -3 16 -18 0 -10 22 10 27 11 3 20 10 20 17 0 6 5
4 11 -4 9 -13 10 -13 6 0 -2 8 -11 14 -21 12 -9 -2 -16 2 -16 8 0 6 -4 8 -10
5 -6 -4 -7 1 -3 11 4 11 8 13 11 6 2 -7 8 -12 13 -12 6 0 7 5 3 11 -13 21 65
76 99 70 5 -1 5 4 1 10 -4 7 -7 27 -6 45 1 18 -4 36 -10 40 -8 5 -9 2 -5 -9 5
-14 2 -16 -21 -11 -22 4 -24 3 -12 -6 12 -9 12 -11 1 -8 -20 6 -26 28 -7 28 8
0 18 5 22 12 4 6 3 8 -3 5 -13 -8 -23 16 -22 51 1 17 3 21 6 10 2 -10 9 -18
14 -18 6 0 8 9 5 20 -3 11 -8 28 -11 39 -4 13 1 20 16 24 13 4 20 11 16 20 -6
17 27 39 48 31 11 -5 18 0 22 15 3 11 8 19 12 17 11 -7 34 11 37 28 1 9 -2 14
-6 11 -10 -6 -50 16 -50 27 0 5 5 8 11 8 6 0 16 6 22 12 16 17 21 58 7 58 -6
0 -8 5 -5 10 3 5 1 10 -6 10 -9 0 -8 4 2 12 8 7 21 21 28 30 10 14 9 16 -8 11
-12 -3 -21 -1 -21 6 0 10 19 15 47 12 12 -2 12 16 0 37 -7 11 -2 16 14 14 14
-2 40 36 30 43 -6 3 -11 11 -11 17 0 7 4 7 14 -1 10 -9 16 -8 25 3 10 12 9 15
-6 15 -29 -1 -52 6 -65 19 -9 9 -8 12 5 12 10 0 20 7 23 15 4 9 14 14 23 13 9
-2 15 3 14 10 -2 6 5 12 15 12 15 1 14 2 -3 12 -11 6 -28 18 -38 26 -16 14
-16 17 -2 39 9 13 13 28 9 34 -4 6 -2 14 5 18 7 5 8 17 2 39 -8 26 -7 32 6 32
13 0 13 3 2 18 -7 9 -9 14 -5 10 11 -10 35 21 36 45 0 10 4 16 9 13 5 -4 12 0
14 6 4 10 6 10 6 0 1 -9 6 -10 20 -3 10 6 22 7 26 3 5 -4 5 1 2 10 -3 10 -2
20 4 24 6 3 3 11 -8 20 -17 12 -17 13 0 14 9 0 17 5 17 11 0 6 -13 8 -30 5
-33 -5 -49 9 -30 27 10 9 11 9 6 0 -4 -7 1 -9 16 -5 12 3 17 7 10 10 -17 5
-15 22 3 22 8 0 15 -5 15 -11 0 -8 5 -7 16 2 14 12 14 14 -1 25 -9 7 -14 18
-10 24 4 7 14 1 27 -15 19 -25 38 -26 38 -2 0 7 -4 6 -10 -3 -7 -12 -9 -10 -7
7 1 17 5 20 19 12 10 -5 18 -6 18 -2 0 13 -38 42 -45 35 -8 -8 -25 18 -25 41
0 9 8 17 18 17 16 1 16 2 -2 15 -27 20 -14 50 15 34 15 -8 19 -8 15 0 -4 6 3
15 16 20 13 6 18 10 12 10 -7 1 -14 8 -18 16 -3 8 0 14 7 12 7 -1 12 5 12 13
0 10 -8 14 -25 13 l-25 -3 28 24 28 23 -23 16 c-23 16 -23 16 14 16 42 1 68 9
68 22 0 6 -7 6 -18 0 -14 -7 -19 -6 -19 4 0 8 4 12 9 9 8 -5 10 0 12 29 1 6 8
18 16 25 16 14 19 14 -52 -4 l-23 -5 22 19 c12 11 20 22 17 25 -3 3 4 8 16 12
12 4 19 12 16 20 -2 7 2 16 10 19 9 3 12 11 8 17 -4 7 -3 9 4 5 6 -3 13 -2 17
4 6 9 -7 14 -27 11 -4 0 -12 9 -19 20 -9 17 -8 20 3 14 10 -6 11 -5 1 6 -15
15 -17 33 -4 25 15 -10 58 18 53 34 -5 13 -3 13 11 2 15 -12 16 -11 12 17 -2
17 -6 35 -10 41 -3 5 -3 10 2 10 7 0 10 15 16 71 1 11 8 14 22 11 19 -4 19 -4
-3 17 -13 13 -19 27 -15 34 4 7 6 23 4 36 -1 13 1 21 7 17 11 -7 22 16 22 45
0 10 5 19 11 19 7 0 9 11 6 29 -5 22 -1 31 16 40 21 11 21 11 -3 5 -22 -6 -23
-5 -12 9 10 11 10 17 1 22 -7 5 0 13 20 21 18 8 30 18 26 24 -3 5 1 10 9 10 9
0 16 6 16 14 0 7 10 16 22 19 19 5 20 8 7 23 -8 10 -9 15 -3 11 7 -4 17 0 24
8 10 12 16 13 29 3 13 -10 14 -10 4 2 -7 8 -13 23 -13 33 0 13 -5 17 -16 13
-8 -3 -22 0 -30 8 -16 17 -19 36 -4 36 5 0 7 7 3 16 -4 11 1 23 13 32 17 13
17 14 1 8 -13 -4 -16 -2 -10 7 4 6 6 24 4 39 -2 21 2 28 16 29 10 0 12 3 6 6
-9 3 -8 11 5 31 16 25 16 26 -3 19 -11 -4 2 12 29 36 27 24 46 49 43 54 -4 6
-1 13 7 16 9 4 12 15 9 31 -4 20 -2 25 9 21 8 -3 21 1 28 10 11 13 10 14 -5 9
-15 -6 -16 -4 -5 16 11 20 10 25 -4 35 -18 14 -21 31 -6 40 6 4 7 -1 4 -12 -5
-16 -4 -16 10 1 14 17 19 41 15 73 0 4 8 10 18 14 16 7 16 8 1 8 -9 1 -20 6
-24 13 -4 7 -3 8 5 4 6 -4 14 0 17 8 3 9 11 13 16 10 6 -4 5 2 -1 14 -8 15 -8
22 2 25 8 4 8 8 2 14 -5 4 -16 19 -23 32 -12 21 -12 23 2 18 9 -4 15 -3 14 1
-3 18 16 42 34 42 14 0 18 5 14 15 -3 9 1 18 9 21 8 4 12 10 9 15 -3 5 2 9 10
9 9 0 16 4 16 9 0 5 -11 8 -25 5 -18 -3 -23 -1 -19 10 3 8 12 12 19 10 9 -4
12 0 8 15 -4 17 -1 19 19 14 20 -6 21 -5 10 10 -8 9 -11 21 -7 27 3 5 1 10 -5
10 -6 0 -8 5 -5 10 3 6 2 10 -3 10 -12 0 -12 32 0 47 6 7 8 19 4 28 -3 8 -2
14 2 13 15 -3 42 15 42 29 0 8 -5 11 -11 7 -7 -4 -6 3 2 17 7 13 12 28 11 32
-1 5 2 6 8 2 6 -3 7 -11 4 -17 -4 -6 2 -6 15 1 11 7 21 16 21 21 0 5 9 12 20
15 11 4 18 10 15 15 -3 5 -12 7 -19 4 -8 -3 -17 0 -22 7 -4 8 -3 10 4 5 7 -4
12 -1 12 8 0 8 -4 17 -9 20 -5 3 -11 19 -13 35 -2 17 -1 28 3 26 12 -8 20 28
9 39 -6 6 -4 16 8 30 9 11 12 16 6 13 -7 -4 -14 2 -17 13 -3 10 0 21 6 23 9 3
9 10 1 28 -13 28 -8 49 12 49 10 0 13 7 8 25 -4 15 -2 25 5 25 15 0 14 27 -1
32 -8 3 -3 14 14 31 18 18 22 27 13 27 -23 0 -18 18 10 36 14 9 22 20 19 25
-3 5 0 9 7 9 8 0 7 5 -2 17 -10 11 -10 14 -1 9 6 -4 12 -2 12 3 0 6 -8 11 -17
11 -11 0 -14 3 -7 8 6 4 14 17 18 30 4 12 14 22 21 22 8 0 17 4 20 10 3 5 0 7
-8 4 -11 -4 -14 5 -13 40 0 26 3 46 7 46 4 0 12 14 19 30 7 17 19 30 26 30 8
0 19 11 24 25 5 14 14 25 20 25 6 0 4 7 -4 16 -16 16 -23 49 -8 40 5 -3 8 10
7 29 0 19 3 35 7 35 4 0 8 6 8 14 0 8 7 17 16 20 14 5 14 9 3 23 -10 12 -10
14 -1 9 13 -8 17 6 5 18 -14 13 -13 47 2 52 8 4 15 12 15 20 0 8 5 14 11 14 5
0 7 -5 3 -12 -4 -7 -3 -8 4 -4 6 4 9 13 6 21 -4 10 0 12 18 7 19 -5 17 0 -14
30 -44 41 -46 50 -15 63 12 6 21 18 21 28 -1 9 4 17 12 17 8 0 14 4 14 9 0 5
-9 7 -20 4 -12 -3 -20 0 -20 7 0 7 -7 10 -17 6 -16 -6 -16 -5 1 11 13 12 20
14 23 6 2 -7 11 -10 19 -7 8 2 20 6 28 8 11 4 13 12 7 33 -6 20 -3 31 8 40 14
10 14 14 2 25 -10 9 -12 9 -7 1 4 -8 1 -13 -8 -13 -21 0 -21 29 0 37 12 4 13
7 3 14 -8 4 -10 11 -6 15 3 4 13 2 21 -5 12 -10 16 -3 25 39 6 29 9 56 5 61
-3 5 1 9 9 9 10 0 13 7 10 19 -3 10 1 22 8 26 8 5 10 4 5 -3 -4 -7 -3 -12 3
-12 16 0 24 21 12 33 -6 6 -11 23 -11 39 0 19 -4 26 -14 22 -8 -3 -17 -1 -21
5 -3 7 3 11 15 11 12 0 18 4 15 10 -4 6 -16 8 -27 4 -14 -4 -18 -2 -14 5 4 6
3 11 -3 11 -5 0 -11 -6 -14 -12 -3 -10 -12 -9 -37 5 -17 9 -37 14 -42 10 -7
-3 -8 -1 -4 5 4 7 1 12 -8 12 -9 0 -16 7 -16 16 0 8 -4 13 -9 9 -5 -3 -12 -1
-16 5 -3 5 -13 10 -21 10 -9 0 -12 -5 -8 -12 4 -6 3 -8 -4 -4 -6 3 -13 2 -17
-3 -8 -13 -35 -2 -35 14 0 7 -7 18 -15 25 -12 10 -15 10 -15 -1 0 -11 -2 -11
-10 1 -8 13 -10 12 -10 -4z m-30 -16 c0 -5 -2 -10 -4 -10 -3 0 -8 5 -11 10 -3
6 -1 10 4 10 6 0 11 -4 11 -10z m-210 -61 c0 -6 -4 -7 -10 -4 -5 3 -10 11 -10
16 0 6 5 7 10 4 6 -3 10 -11 10 -16z m-350 -73 c0 -3 -4 -8 -10 -11 -5 -3 -10
-1 -10 4 0 6 5 11 10 11 6 0 10 -2 10 -4z m-2690 -96 c0 -5 -7 -7 -15 -4 -8 4
-12 10 -9 15 6 11 24 2 24 -11z m-90 -620 c0 -5 -5 -10 -11 -10 -5 0 -7 5 -4
10 3 6 8 10 11 10 2 0 4 -4 4 -10z m10 -86 c0 -8 -19 -13 -24 -6 -3 5 1 9 9 9
8 0 15 -2 15 -3z m970 -108 c0 -2 -7 -9 -15 -16 -13 -11 -14 -10 -9 4 5 14 24
23 24 12z m110 -371 c14 -16 10 -18 -14 -9 -9 3 -16 10 -16 15 0 14 16 11 30
-6z m220 -565 c0 -5 -2 -10 -4 -10 -3 0 -8 5 -11 10 -3 6 -1 10 4 10 6 0 11
-4 11 -10z m-643 -517 c-4 -3 -2 -12 4 -20 9 -10 8 -13 -5 -13 -9 0 -16 6 -16
13 0 14 9 27 18 27 3 0 2 -3 -1 -7z m103 -293 c0 -5 -7 -10 -15 -10 -8 0 -15
5 -15 10 0 6 7 10 15 10 8 0 15 -4 15 -10z m2135 -248 c-3 -3 -11 0 -18 7 -9
10 -8 11 6 5 10 -3 15 -9 12 -12z m-2008 -68 c-3 -3 -12 -4 -19 -1 -8 3 -5 6
6 6 11 1 17 -2 13 -5z m858 -2462 c-3 -3 -11 0 -18 7 -9 10 -8 11 6 5 10 -3
15 -9 12 -12z"/>
<path d="M4310 6801 c0 -6 4 -13 10 -16 6 -3 7 1 4 9 -7 18 -14 21 -14 7z"/>
<path d="M6157 6801 c-10 -4 -18 -11 -18 -16 0 -6 -7 -10 -17 -10 -9 -1 -23
-5 -31 -9 -8 -5 -16 -3 -22 5 -4 8 -20 15 -34 16 -14 1 -23 -2 -19 -8 9 -15
-20 -6 -33 11 -9 11 -12 12 -13 2 0 -7 -4 -10 -10 -7 -6 4 -10 -5 -10 -19 0
-14 -4 -26 -10 -26 -5 0 -10 -6 -10 -13 0 -7 -9 -13 -20 -13 -11 0 -20 4 -20
8 0 4 -7 8 -15 8 -8 0 -15 5 -15 10 0 6 -5 10 -11 10 -5 0 -8 -4 -4 -9 7 -13
-30 -24 -55 -16 -23 7 -26 -4 -7 -25 6 -8 2 -6 -10 4 -13 11 -24 16 -24 13
-11 -55 -37 -83 -71 -78 -4 0 -5 -12 -4 -27 2 -18 11 -29 27 -33 21 -6 21 -7
4 -9 -12 -1 -15 -4 -7 -7 10 -4 9 -8 -5 -19 -17 -13 -17 -13 1 -14 17 0 18 -2
4 -17 -9 -10 -13 -24 -10 -32 3 -10 0 -12 -14 -7 -10 4 -15 4 -11 0 4 -4 2
-13 -5 -21 -6 -8 -7 -13 -2 -12 5 1 20 1 33 0 20 -1 22 -4 13 -13 -20 -20 -14
-25 23 -22 32 3 34 2 20 -12 -8 -9 -20 -12 -27 -8 -8 5 -7 0 2 -11 9 -11 10
-16 3 -11 -7 4 -13 3 -13 -3 0 -5 -6 -11 -12 -14 -7 -2 -5 -3 5 -2 21 4 23
-21 2 -29 -15 -5 -22 -27 -7 -25 29 5 34 -2 16 -23 -12 -14 -14 -19 -4 -13 12
6 13 5 3 -6 -7 -7 -13 -21 -13 -32 0 -11 -5 -15 -11 -11 -8 4 -8 0 0 -15 7
-11 17 -21 24 -21 7 -1 1 -7 -13 -15 -21 -12 -22 -14 -5 -12 11 1 27 7 35 11
8 5 12 6 8 2 -3 -4 2 -16 13 -27 26 -26 24 -39 -7 -39 -40 0 -56 -21 -39 -53
12 -24 11 -27 -6 -32 -10 -4 -19 -11 -19 -17 0 -7 4 -7 13 -1 6 6 22 13 35 16
20 5 21 3 11 -9 -7 -8 -8 -14 -3 -12 5 2 10 -1 12 -7 2 -5 10 -17 17 -25 7 -8
15 -19 17 -25 2 -5 7 -9 11 -7 5 1 6 -2 2 -8 -3 -6 -11 -8 -16 -5 -5 4 -9 0
-9 -9 0 -8 -6 -16 -12 -18 -7 -3 -3 -7 9 -10 17 -5 20 -2 16 11 -4 9 -3 13 1
9 4 -3 9 -17 10 -31 2 -19 -1 -24 -12 -20 -12 5 -12 2 -3 -15 7 -12 16 -22 21
-22 6 0 10 -7 10 -16 0 -8 -5 -12 -11 -9 -6 4 -10 1 -8 -6 3 -29 -2 -39 -21
-39 -16 0 -20 -7 -20 -37 0 -20 -8 -45 -17 -56 -19 -22 -20 -22 36 1 10 4 12
1 6 -8 -6 -10 -4 -12 8 -7 22 8 23 -19 1 -31 -14 -8 -13 -10 2 -23 11 -9 15
-9 10 -1 -4 6 -5 12 -1 12 12 0 22 -45 11 -52 -6 -4 3 -8 21 -8 17 0 34 -4 37
-9 3 -4 -10 -7 -29 -5 -21 1 -33 -2 -29 -7 3 -6 -2 -20 -13 -32 -15 -19 -16
-20 0 -8 15 12 17 11 17 -13 0 -24 -3 -26 -22 -21 -23 7 -23 7 1 -10 18 -14
20 -19 10 -26 -12 -7 -12 -12 -1 -30 12 -19 11 -20 -7 -14 -10 3 -22 1 -25 -4
-4 -5 8 -13 26 -16 18 -4 38 -11 44 -16 14 -11 11 -48 -5 -58 -7 -5 -12 -11
-12 -15 3 -23 0 -30 -9 -16 -8 13 -10 13 -10 -2 0 -9 6 -19 13 -22 6 -2 1 -4
-13 -3 -16 1 -25 -4 -28 -17 -2 -11 0 -16 7 -11 6 3 9 11 6 16 -3 5 1 6 9 3
14 -5 14 -8 -1 -22 -10 -11 -12 -17 -4 -20 6 -2 9 -8 5 -13 -3 -5 2 -9 10 -9
9 0 16 -9 16 -20 0 -13 7 -20 20 -20 11 0 18 -5 15 -12 -10 -28 -13 -68 -6
-63 5 2 11 -6 13 -20 3 -13 1 -26 -3 -27 -5 -2 -10 -15 -11 -31 -2 -18 -7 -26
-15 -23 -7 3 -13 -2 -13 -11 0 -9 -3 -13 -7 -10 -3 4 -12 -1 -19 -11 -10 -14
-10 -18 4 -24 16 -6 15 -7 0 -7 -20 -1 -24 -26 -6 -37 6 -4 8 -3 5 3 -4 6 4
13 18 15 14 3 25 2 26 -1 2 -15 8 -38 15 -55 5 -14 4 -17 -4 -12 -8 4 -10 2
-6 -8 3 -8 0 -16 -8 -19 -7 -2 -3 -2 9 0 21 3 22 1 11 -23 -10 -22 -10 -28 5
-39 22 -16 12 -23 -37 -27 -21 -1 -40 -6 -42 -10 -3 -5 -2 -8 3 -7 22 4 24 -3
8 -21 -17 -18 -17 -20 -2 -14 12 4 17 1 17 -10 0 -9 -8 -16 -20 -16 -11 0 -20
-4 -20 -9 0 -5 16 -5 38 0 40 9 76 3 67 -12 -4 -5 1 -9 9 -9 26 0 18 -17 -9
-19 -48 -3 -54 -4 -49 -13 3 -5 10 -6 15 -3 15 10 10 -5 -7 -23 -14 -13 -14
-17 -2 -26 7 -6 24 -27 38 -46 13 -19 20 -32 15 -28 -4 4 -14 3 -21 -3 -11 -9
-11 -15 1 -32 20 -28 19 -37 -2 -37 -16 -1 -16 -2 1 -15 17 -13 18 -15 3 -15
-9 0 -17 -7 -17 -15 0 -8 7 -15 17 -15 15 0 15 -2 -1 -19 -13 -14 -14 -21 -5
-27 7 -4 10 -3 5 4 -3 6 -2 13 3 16 5 3 11 -3 14 -14 3 -11 1 -22 -4 -25 -4
-3 -6 -12 -3 -19 3 -9 -1 -13 -12 -13 -9 1 -19 -3 -21 -10 -3 -7 4 -10 19 -7
18 3 17 2 -4 -7 -16 -6 -28 -15 -28 -20 0 -6 5 -7 10 -4 6 3 10 2 10 -3 0 -6
-7 -13 -16 -16 -9 -4 -14 -9 -11 -13 4 -3 -1 -12 -11 -19 -16 -12 -15 -13 6
-14 20 0 27 -10 23 -32 0 -5 9 -8 21 -8 19 0 20 -2 8 -10 -12 -8 -12 -10 -1
-10 9 0 10 -4 4 -12 -6 -7 -13 -23 -16 -36 -4 -18 -2 -22 9 -18 22 8 38 -31
20 -49 -10 -11 -17 -12 -22 -4 -5 8 -10 6 -16 -5 -5 -9 -14 -14 -20 -10 -6 4
-5 -3 2 -16 8 -15 8 -20 1 -16 -6 4 -11 2 -11 -3 0 -6 9 -11 21 -11 11 0 17
-5 14 -10 -4 -6 -10 -8 -15 -5 -4 3 -11 -2 -14 -10 -4 -13 -2 -14 14 -5 33 18
80 -17 48 -36 -7 -5 -8 -3 -3 6 5 9 4 11 -4 6 -9 -6 -9 -11 0 -22 6 -8 8 -14
4 -14 -4 0 -2 -6 4 -14 16 -19 24 -66 12 -66 -6 0 -8 -7 -5 -15 4 -8 1 -15 -5
-15 -6 0 -11 -10 -11 -22 -1 -13 -1 -36 -1 -53 0 -16 -8 -38 -16 -47 -15 -17
-14 -18 5 -18 12 0 22 -4 22 -10 0 -5 -4 -10 -10 -10 -5 0 -10 -12 -10 -26 0
-26 20 -54 39 -54 5 0 13 -5 17 -12 4 -6 3 -8 -3 -5 -5 3 -23 2 -39 -3 -28
-10 -28 -10 -2 -7 32 5 28 -14 -9 -38 -23 -16 -24 -17 -6 -30 10 -7 14 -17 10
-21 -4 -5 -12 -2 -16 5 -6 10 -10 10 -16 1 -9 -15 -8 -16 40 -27 30 -6 41 -14
43 -31 3 -18 -1 -22 -24 -22 -21 0 -24 -3 -15 -13 13 -16 5 -28 -14 -21 -7 3
-14 -5 -17 -20 -3 -14 -1 -23 3 -20 5 3 9 0 9 -6 0 -7 7 -5 16 4 20 20 23 20
19 -1 -2 -10 -4 -21 -4 -25 -1 -5 -11 -8 -23 -8 -20 -1 -21 -2 -6 -11 15 -8
16 -14 5 -37 -6 -15 -19 -33 -27 -40 -13 -10 -12 -11 4 -5 15 5 18 3 13 -10
-3 -9 -1 -19 5 -23 6 -4 8 -3 5 3 -4 6 3 13 16 15 17 3 22 0 22 -18 0 -12 -3
-20 -7 -18 -4 2 -10 0 -13 -6 -4 -6 -3 -10 2 -9 18 3 33 -2 33 -11 0 -5 -8
-10 -17 -11 -11 0 -13 -3 -5 -6 6 -2 12 -12 12 -21 0 -15 2 -15 11 -2 8 11 8
9 3 -10 -11 -36 -11 -124 0 -132 5 -3 11 -12 12 -20 1 -7 3 -20 5 -28 3 -9 -5
-16 -19 -18 -16 -3 -22 -8 -18 -19 5 -11 2 -14 -11 -9 -13 4 -11 0 6 -14 20
-17 21 -20 5 -20 -9 0 -14 -3 -11 -6 3 -4 2 -15 -3 -25 -8 -14 -6 -20 7 -28
17 -9 17 -10 1 -16 -15 -6 -15 -8 3 -26 11 -11 17 -25 13 -31 -4 -6 -3 -8 4
-4 6 3 13 2 16 -3 4 -5 1 -13 -5 -16 -5 -4 -8 -13 -5 -21 3 -8 1 -14 -5 -14
-6 0 -7 -4 -4 -10 4 -6 -1 -7 -11 -3 -12 4 -15 3 -10 -5 5 -8 2 -10 -8 -6 -11
4 -16 0 -16 -11 0 -10 5 -14 13 -10 6 4 4 0 -5 -7 -15 -13 -15 -15 0 -26 15
-11 15 -12 -3 -9 -13 1 -20 -5 -23 -18 -2 -15 -1 -17 6 -7 10 14 77 11 90 -4
4 -4 -1 -4 -12 0 -14 5 -17 3 -12 -10 6 -15 4 -15 -11 -3 -18 15 -18 16 3 -36
4 -9 0 -15 -9 -15 -9 0 -18 -4 -21 -9 -4 -5 3 -7 14 -4 26 7 25 -4 -2 -28 -13
-10 -18 -18 -11 -19 7 0 10 -7 6 -17 -4 -10 -2 -14 4 -10 6 4 18 -4 27 -18 14
-21 14 -26 1 -39 -19 -19 -19 -37 0 -30 8 4 15 1 15 -5 0 -6 -4 -11 -9 -11 -5
0 -7 -9 -4 -20 3 -13 0 -20 -8 -20 -21 0 -39 -45 -25 -62 6 -7 2 -5 -10 5 -17
14 -21 15 -21 2 0 -8 3 -15 6 -15 4 0 11 -8 18 -19 10 -15 9 -18 -4 -17 -9 0
-18 -4 -20 -9 -2 -6 9 -11 24 -10 24 0 28 -4 25 -24 -1 -13 5 -29 15 -37 10
-7 14 -14 9 -14 -5 0 -3 -6 3 -14 8 -10 9 -16 1 -21 -5 -3 -10 -11 -10 -16 0
-6 6 -7 13 -3 9 6 9 4 -1 -8 -9 -11 -10 -18 -2 -23 6 -3 7 -11 4 -17 -5 -7 -1
-9 9 -5 13 5 17 1 17 -17 0 -14 -6 -26 -12 -29 -10 -3 -10 -7 -2 -18 6 -8 10
-22 8 -32 -1 -12 2 -17 11 -13 8 3 17 1 20 -4 3 -4 -1 -10 -7 -13 -10 -3 -8
-10 5 -25 11 -12 16 -26 11 -33 -5 -9 -2 -10 9 -6 9 3 18 -1 21 -10 5 -13 9
-13 24 -2 15 13 16 12 3 -4 -10 -13 -11 -21 -3 -29 8 -8 13 0 17 26 4 20 12
39 18 43 6 4 7 1 3 -6 -5 -7 -1 -17 9 -24 19 -15 10 -51 -12 -43 -11 5 -11 1
-2 -15 6 -12 9 -30 6 -40 -6 -22 -3 -23 24 -9 15 8 21 7 25 -4 6 -15 29 -17
50 -4 18 11 124 6 117 -6 -4 -6 2 -4 12 4 10 8 16 10 13 5 -4 -6 8 -10 32 -10
20 0 45 -7 54 -14 23 -19 66 -21 66 -3 0 10 5 10 22 -2 25 -18 58 -21 58 -7 0
5 -6 12 -12 14 -9 4 -9 6 1 6 8 1 25 -9 39 -21 15 -15 23 -18 20 -8 -2 9 6 16
20 18 12 2 22 8 22 14 0 7 4 7 13 1 21 -16 67 -15 67 2 0 8 5 15 11 15 5 0 7
-5 3 -12 -4 -7 9 -2 30 10 21 13 46 22 55 20 9 -1 26 4 39 10 12 7 28 10 34 6
7 -5 8 -2 3 7 -7 11 -6 12 6 3 8 -5 26 -10 40 -9 18 1 26 -4 25 -15 -1 -8 6
-15 14 -15 8 0 14 8 14 17 -1 10 4 14 11 11 8 -2 23 1 35 7 15 8 20 8 16 1 -4
-6 -2 -11 3 -11 6 0 11 7 11 15 0 14 3 14 30 0 17 -9 30 -13 30 -9 0 4 6 1 14
-5 12 -10 13 -8 9 11 -5 23 -5 23 10 3 8 -11 13 -23 11 -27 -3 -5 0 -8 5 -8 6
0 11 5 11 11 0 8 5 8 15 -1 12 -10 13 -16 3 -29 -12 -14 -11 -14 5 -2 9 7 17
20 17 27 0 8 5 14 11 14 5 0 8 -4 5 -9 -3 -5 1 -12 10 -15 24 -9 28 -7 15 8
-17 20 24 49 49 36 10 -5 21 -6 25 -2 5 4 5 -1 1 -12 -5 -14 -3 -17 10 -12 10
4 22 -1 30 -11 10 -13 13 -14 14 -4 0 11 3 11 15 1 8 -7 12 -17 8 -23 -3 -6
-1 -7 6 -3 6 4 8 13 4 19 -4 7 2 5 12 -3 11 -9 16 -10 11 -2 -4 7 -1 12 9 12
10 0 13 5 9 13 -6 9 -5 9 8 0 8 -7 17 -10 21 -7 3 3 14 1 25 -5 15 -8 23 -6
37 9 10 11 13 20 7 20 -6 0 -12 -5 -14 -12 -2 -6 -10 -8 -16 -4 -18 11 -4 26
23 26 13 0 27 5 30 10 4 6 16 8 28 4 22 -6 22 -6 2 11 -11 9 -15 14 -8 11 6
-4 13 -1 15 4 2 6 16 8 35 4 18 -4 31 -9 29 -13 -2 -3 8 -7 22 -8 67 -3 92 -9
97 -21 3 -7 9 -11 14 -7 6 3 7 13 4 23 -6 15 -5 16 13 2 10 -8 22 -19 25 -24
4 -5 10 1 14 13 3 12 10 19 15 16 5 -3 11 -1 15 5 12 19 26 11 15 -9 -7 -14
-7 -22 2 -27 6 -4 8 -3 5 3 -3 5 1 20 10 33 15 22 17 22 30 5 7 -11 13 -15 13
-11 0 5 7 3 16 -4 8 -8 14 -9 13 -4 -4 22 2 33 16 28 8 -4 13 -10 10 -14 -3
-5 -1 -11 5 -15 5 -3 10 1 10 9 0 23 58 25 72 3 4 -7 8 -8 8 -3 0 5 6 3 13 -3
11 -8 18 -6 32 9 10 11 14 20 9 20 -5 0 -1 5 9 11 20 11 58 -3 38 -15 -6 -4
-11 -12 -11 -18 0 -6 11 -1 26 12 21 21 27 22 35 10 8 -11 12 -12 16 -2 2 6 9
12 14 12 6 0 7 -5 4 -10 -3 -6 4 -14 17 -19 13 -6 17 -10 10 -10 -7 -1 -10 -6
-7 -11 4 -6 10 -8 15 -5 4 3 11 -1 13 -7 3 -8 6 -6 6 5 1 19 21 24 21 5 0 -7
9 -2 19 12 15 19 22 22 33 12 15 -12 28 -7 28 10 0 5 -6 6 -12 2 -10 -5 -10
-4 -1 6 9 10 15 9 32 -2 12 -8 19 -18 16 -21 -3 -4 -2 -5 2 -2 3 3 11 0 18 -5
8 -7 15 1 25 26 9 22 19 33 28 29 7 -2 11 -1 8 4 -3 5 7 23 23 40 21 23 27 37
23 58 -2 15 -1 25 3 21 4 -4 16 -3 26 3 13 7 19 6 19 -1 0 -6 5 -8 10 -5 8 5
8 11 1 19 -14 16 18 18 37 3 10 -8 16 -7 23 6 6 9 17 17 25 17 8 0 13 4 9 9
-3 5 0 13 6 16 5 4 8 13 5 21 -3 8 0 11 8 8 8 -3 17 -1 20 4 3 5 -10 13 -29
16 -38 7 -53 22 -37 38 6 6 6 24 1 49 -5 22 -6 46 -2 52 4 7 -1 5 -12 -3 -17
-14 -17 -14 -4 15 16 34 17 54 5 74 -6 9 -3 18 9 28 18 12 17 13 -6 14 l-24 1
25 7 c17 5 21 9 12 15 -6 4 -17 4 -24 0 -7 -4 -8 -3 -4 4 4 7 2 12 -3 12 -6 0
-11 7 -11 15 0 8 5 15 10 15 6 0 10 5 10 11 0 5 -4 7 -10 4 -6 -3 -7 1 -4 9 3
9 11 13 18 9 7 -4 6 -1 -1 9 -11 12 -9 20 12 44 14 16 23 35 20 42 -2 6 1 12
8 12 7 0 4 5 -6 11 -13 8 -22 7 -32 -1 -9 -7 -15 -8 -20 0 -10 17 -28 11 -21
-7 4 -10 4 -14 0 -10 -4 4 -13 2 -21 -4 -10 -9 -17 -8 -28 1 -8 7 -15 9 -15 4
0 -5 -6 2 -13 16 -8 15 -9 28 -4 31 5 4 4 9 -2 13 -6 4 -11 2 -11 -3 0 -16
-27 -13 -55 5 -16 10 -34 14 -50 10 -14 -4 -25 -3 -25 2 0 5 -6 9 -12 9 -7 0
-20 2 -28 4 -8 2 -14 -2 -13 -8 2 -7 -2 -13 -8 -13 -6 0 -8 9 -4 20 8 25 2 25
-21 3 -17 -17 -48 -28 -40 -14 3 4 -4 13 -16 20 -16 10 -19 10 -12 -1 6 -11 5
-11 -8 0 -14 11 -18 10 -28 -5 -10 -16 -11 -16 -6 0 4 13 0 17 -20 17 -14 0
-23 3 -21 8 3 4 -10 7 -29 8 -34 1 -45 -9 -21 -20 6 -3 3 -4 -8 -3 -11 2 -19
9 -17 18 2 8 0 11 -4 7 -4 -4 -14 -2 -23 4 -12 9 -11 7 2 -8 9 -12 15 -28 12
-37 -7 -18 -47 -30 -55 -17 -3 5 -12 5 -19 1 -8 -6 -10 -14 -5 -22 7 -12 5
-12 -9 0 -9 7 -14 17 -11 22 7 11 -18 7 -27 -4 -11 -14 -47 -16 -53 -1 -3 7
-12 11 -21 8 -8 -3 -13 -9 -11 -13 2 -3 -9 -6 -25 -7 -17 -1 -36 -11 -48 -25
-19 -22 -20 -22 -21 -5 0 19 -1 18 -23 -2 -27 -25 -37 -28 -37 -8 0 7 -7 19
-15 26 -12 10 -15 10 -15 -4 0 -27 -30 -18 -41 13 -9 24 -15 29 -40 27 -17 -1
-35 -9 -40 -17 -7 -12 -9 -11 -9 2 0 9 -7 22 -15 29 -8 7 -12 17 -9 22 4 6 -3
5 -15 -1 -17 -10 -21 -9 -21 4 0 8 -4 15 -8 15 -5 0 -7 -18 -6 -40 1 -22 -2
-40 -7 -40 -5 0 -9 7 -9 15 0 8 -6 14 -12 12 -7 -1 -12 4 -11 10 2 7 0 12 -5
12 -24 -4 -40 3 -38 17 0 9 -3 18 -9 20 -5 2 -10 -11 -9 -28 0 -18 -2 -39 -4
-45 -8 -24 -37 -13 -56 20 -13 23 -20 28 -24 17 -8 -23 -35 -40 -46 -29 -6 5
-17 9 -25 9 -11 0 -10 -4 5 -15 19 -15 19 -15 0 -8 -16 5 -18 3 -13 -11 4 -9
3 -15 -2 -11 -5 3 -12 1 -16 -5 -6 -10 -45 -15 -45 -6 0 3 4 16 10 30 6 16 6
27 -1 31 -5 4 -8 1 -7 -5 2 -7 -7 -14 -19 -16 -13 -2 -23 1 -23 6 0 6 -6 10
-14 10 -9 0 -12 -9 -10 -27 2 -16 1 -20 -2 -10 -3 9 -10 14 -16 11 -6 -4 -16
0 -22 8 -6 8 -15 17 -21 19 -5 2 -9 7 -8 11 2 5 -2 8 -7 8 -6 0 -10 -4 -10 -9
0 -6 -12 -6 -31 -1 -24 7 -28 6 -20 -3 16 -20 -1 -34 -41 -33 -28 1 -34 -2
-26 -11 7 -9 7 -13 0 -13 -6 0 -15 7 -20 16 -7 13 -14 14 -28 6 -14 -7 -25 -7
-38 0 -16 9 -18 8 -13 -5 7 -19 -21 -16 -34 4 -8 11 -9 10 -7 -5 2 -10 -3 -21
-11 -24 -9 -3 -11 0 -6 8 6 10 4 12 -8 7 -18 -7 -72 35 -60 46 3 4 -1 7 -11 7
-10 0 -14 -5 -10 -11 4 -7 1 -10 -6 -7 -7 2 -15 15 -17 28 -2 13 -10 31 -18
40 -18 20 -19 37 -2 43 9 4 9 6 0 6 -7 1 -10 8 -6 17 5 13 8 13 15 2 6 -9 8
-5 6 12 -2 14 3 30 11 36 11 9 12 12 1 19 -9 5 -11 4 -6 -3 5 -8 1 -10 -11 -5
-15 6 -14 9 10 17 26 10 37 26 17 26 -5 0 -10 12 -10 26 0 19 4 25 15 20 9 -3
15 0 15 10 0 11 -5 14 -17 9 -10 -4 -30 -8 -46 -10 -21 -2 -25 0 -17 10 8 9 7
14 -2 17 -9 3 -8 11 6 32 10 16 13 25 6 21 -9 -5 -10 -1 -5 14 5 15 2 21 -9
21 -9 0 -16 5 -16 11 0 5 4 8 8 5 4 -2 13 4 20 15 10 15 10 19 0 17 -7 -2 -13
4 -13 13 0 9 -6 23 -13 31 -10 13 -10 17 4 22 12 5 14 10 5 19 -8 10 -7 17 2
27 10 10 9 12 -3 6 -11 -5 -10 -4 2 6 11 10 13 19 7 31 -8 13 -6 15 6 11 13
-6 19 13 14 52 0 3 8 12 18 19 15 12 16 16 4 27 -10 9 -12 9 -7 1 4 -8 1 -13
-8 -13 -20 0 -21 24 -1 40 21 17 19 30 -4 30 -10 0 -22 7 -25 16 -3 8 -10 12
-16 9 -5 -3 -10 -1 -10 4 0 6 5 11 12 11 6 0 9 3 5 6 -3 4 -1 12 6 20 31 35
37 44 35 56 -2 7 5 12 14 12 14 -1 15 2 8 16 -8 14 -5 16 15 12 20 -3 25 0 24
14 0 11 -3 14 -5 7 -4 -9 -12 -9 -32 -1 -40 17 -55 38 -39 57 8 10 9 13 0 8
-6 -4 -14 -3 -18 3 -3 6 3 10 16 10 19 0 20 2 8 17 -10 12 -11 17 -2 20 8 3 9
13 3 34 -6 20 -5 27 2 23 6 -4 8 1 6 12 -2 11 3 25 12 32 8 7 11 12 5 11 -23
-3 -32 2 -43 26 -9 20 -9 23 4 18 9 -3 20 0 25 8 5 8 9 9 9 3 0 -17 28 -25 36
-12 4 6 3 8 -3 5 -6 -4 -19 5 -28 19 -9 15 -12 23 -6 20 6 -4 11 0 11 9 0 8
10 20 23 25 19 9 17 9 -9 5 -23 -4 -33 -2 -37 9 -4 9 -2 18 2 21 5 3 7 15 3
27 -3 13 -1 19 6 15 13 -9 9 29 -8 65 -10 22 -11 30 0 43 10 12 10 15 -4 15
-9 0 -16 6 -15 13 3 27 -1 38 -13 31 -9 -5 -8 -2 1 9 11 13 17 15 28 6 11 -9
12 -9 8 3 -4 9 0 31 8 51 14 32 14 34 -3 30 -19 -5 -23 18 -5 34 4 4 5 2 1 -4
-4 -7 -3 -13 2 -13 5 0 9 14 8 30 -1 25 -3 28 -13 15 -7 -11 -13 -12 -18 -6
-3 6 -1 11 4 11 16 0 13 16 -5 34 -10 10 -11 16 -4 16 7 0 10 6 7 14 -3 8 1
20 8 26 8 7 12 16 9 21 -3 5 2 12 10 15 9 3 13 10 10 15 -3 5 2 9 10 9 8 0 18
5 22 12 5 7 2 9 -8 6 -8 -4 -21 -2 -29 3 -12 8 -12 10 0 18 9 6 10 11 2 15
-19 12 -12 26 23 47 36 21 37 29 16 84 -10 26 -8 31 11 46 19 14 20 17 5 22
-12 5 -15 3 -10 -6 5 -9 4 -9 -6 -1 -6 7 -12 28 -12 48 0 31 -2 34 -18 26 -24
-13 -34 0 -12 16 12 10 13 13 3 14 -10 0 -10 5 3 25 9 14 12 25 7 25 -5 0 -8
13 -6 30 2 16 0 32 -6 35 -5 4 -7 11 -3 16 3 5 9 7 14 4 14 -8 -10 76 -26 92
-11 12 -12 18 -3 29 8 10 8 14 0 14 -6 0 -10 11 -9 24 1 14 7 22 12 19 5 -4 7
1 3 11 -4 10 -2 27 4 39 9 16 9 22 0 25 -8 3 -6 9 6 18 15 12 15 13 1 8 -19
-6 -62 31 -53 46 4 6 -2 7 -12 3 -17 -6 -17 -6 0 14 11 13 15 27 11 38 -6 14
-4 17 9 12 22 -8 30 8 12 23 -21 17 -19 25 7 27 18 2 20 0 8 -7 -9 -6 -10 -10
-3 -10 19 0 26 20 12 36 -10 13 -8 14 15 10 15 -3 24 -1 21 5 -4 5 -14 9 -23
9 -35 0 -61 29 -60 65 1 21 6 35 14 35 19 0 12 42 -8 48 -14 3 -15 8 -7 23 7
15 6 19 -6 19 -13 0 -13 3 -3 20 7 11 19 20 26 20 8 0 12 6 10 13 -3 6 -10 12
-16 12 -7 0 -12 3 -12 8 0 4 0 12 0 17 0 6 7 10 15 10 18 0 20 16 3 24 -10 5
-10 7 -1 12 8 3 10 16 6 35 -3 17 0 35 7 44 7 8 8 15 3 15 -16 0 -32 -22 -26
-39 3 -12 2 -11 -7 2 -10 15 -8 23 9 41 20 21 20 66 -1 66 -5 0 -7 4 -3 9 3 5
-4 16 -16 24 -19 14 -20 15 -2 20 16 4 16 5 1 6 -10 0 -18 6 -18 12 0 5 -4 7
-10 4 -15 -9 -12 6 5 25 12 13 13 23 6 43 -9 22 -8 25 7 20 12 -5 10 1 -7 20
-20 22 -21 27 -8 27 9 0 19 5 23 12 5 7 3 8 -6 3 -17 -11 -3 36 16 51 18 15
18 25 -1 18 -18 -7 -20 7 -3 24 9 9 8 12 -7 12 -18 0 -18 1 2 15 14 10 20 23
18 41 -1 14 3 28 11 31 11 4 11 8 -1 20 -8 8 -19 11 -25 8 -5 -3 -10 -1 -10 4
0 6 7 11 16 11 15 0 15 2 0 25 -16 24 -15 25 9 31 26 6 56 44 35 44 -6 0 -10
8 -8 18 2 12 -3 16 -17 14 -20 -4 -20 -3 0 11 16 12 17 18 7 30 -7 8 -12 19
-11 23 4 23 -2 33 -18 28 -16 -5 -16 -4 1 10 14 11 16 19 9 28 -6 7 -9 21 -7
31 1 12 -2 17 -11 13 -20 -7 -10 33 12 51 14 11 15 16 5 20 -10 4 -9 8 5 19
17 13 17 13 -2 14 -18 1 -18 2 -3 10 19 12 16 58 -5 75 -7 6 -11 18 -9 28 2 9
-1 17 -7 17 -6 0 -8 7 -5 15 4 8 12 15 19 15 18 0 23 67 8 110 -6 19 -12 28
-12 21 -1 -12 -4 -12 -13 -3 -18 18 -31 15 -23 -5 4 -12 3 -15 -4 -8 -5 6 -11
20 -13 33 l-3 23 -24 -22 c-18 -17 -23 -19 -18 -7 7 19 -24 34 -44 22 -17 -10
-79 -23 -76 -15 2 3 -5 15 -16 25 -17 16 -19 17 -14 3 4 -11 1 -17 -9 -17 -8
0 -12 5 -9 10 3 6 -3 10 -15 10 -12 0 -18 -4 -15 -10 4 -7 -3 -7 -19 0 -17 6
-26 6 -26 -1 0 -12 -32 -8 -42 6 -5 6 -8 6 -8 -1 0 -7 -7 -15 -16 -18 -8 -3
-12 -2 -9 4 3 6 1 10 -5 10 -6 0 -8 4 -5 10 8 13 -38 8 -47 -5 -5 -6 -8 -5 -8
3 0 13 -6 14 -33 3z m-437 -605 c0 -3 -4 -8 -10 -11 -5 -3 -10 -1 -10 4 0 6 5
11 10 11 6 0 10 -2 10 -4z m974 -632 c3 -8 2 -12 -4 -9 -6 3 -10 10 -10 16 0
14 7 11 14 -7z m1 -344 c3 -5 1 -10 -4 -10 -6 0 -11 5 -11 10 0 6 2 10 4 10 3
0 8 -4 11 -10z m30 -549 c-3 -6 -11 -11 -16 -11 -5 0 -4 6 3 14 14 16 24 13
13 -3z m15 -21 c0 -5 -8 -10 -17 -10 -15 0 -16 2 -3 10 19 12 20 12 20 0z
m-843 -682 c-3 -8 -6 -5 -6 6 -1 11 2 17 5 13 3 -3 4 -12 1 -19z m20 -584 c-3
-3 -12 -4 -19 -1 -8 3 -5 6 6 6 11 1 17 -2 13 -5z m27 -919 c3 -8 1 -15 -4
-15 -6 0 -10 7 -10 15 0 8 2 15 4 15 2 0 6 -7 10 -15z m2053 -257 c-3 -8 -6
-5 -6 6 -1 11 2 17 5 13 3 -3 4 -12 1 -19z m687 -36 c3 -5 -1 -9 -9 -9 -8 0
-12 4 -9 9 3 4 7 8 9 8 2 0 6 -4 9 -8z m73 -48 c-3 -3 -12 -4 -19 -1 -8 3 -5
6 6 6 11 1 17 -2 13 -5z m31 -473 c3 -8 -1 -12 -9 -9 -7 2 -15 10 -17 17 -3 8
1 12 9 9 7 -2 15 -10 17 -17z m-2600 -242 c-2 -6 -8 -10 -13 -10 -5 0 -11 4
-13 10 -2 6 4 11 13 11 9 0 15 -5 13 -11z m722 6 c0 -2 -10 -9 -22 -15 -22
-11 -22 -10 -4 4 21 17 26 19 26 11z"/>
<path d="M1765 6741 c-3 -5 -2 -12 3 -15 5 -3 9 1 9 9 0 17 -3 19 -12 6z"/>
<path d="M1870 6730 c0 -5 5 -10 10 -10 6 0 10 5 10 10 0 6 -4 10 -10 10 -5 0
-10 -4 -10 -10z"/>
<path d="M2015 6611 c-3 -5 -2 -12 3 -15 5 -3 9 1 9 9 0 17 -3 19 -12 6z"/>
<path d="M2156 6193 c-6 -14 -5 -15 5 -6 7 7 10 15 7 18 -3 3 -9 -2 -12 -12z"/>
<path d="M5700 6128 c0 -5 -5 -6 -12 -2 -7 4 -8 3 -4 -4 5 -9 13 -9 27 -2 23
13 24 17 4 17 -8 0 -15 -4 -15 -9z"/>
<path d="M4865 6091 c-3 -5 -1 -12 5 -16 5 -3 10 1 10 9 0 18 -6 21 -15 7z"/>
<path d="M4825 5880 c3 -5 8 -10 11 -10 2 0 4 5 4 10 0 6 -5 10 -11 10 -5 0
-7 -4 -4 -10z"/>
<path d="M3851 5864 c0 -11 3 -14 6 -6 3 7 2 16 -1 19 -3 4 -6 -2 -5 -13z"/>
<path d="M3836 5717 c3 -10 9 -15 12 -12 3 3 0 11 -7 18 -10 9 -11 8 -5 -6z"/>
<path d="M3700 5442 c0 -4 9 -8 20 -9 11 -1 18 2 15 8 -7 11 -35 12 -35 1z"/>
<path d="M4625 5121 c-3 -5 0 -13 6 -17 7 -4 9 -3 5 4 -3 5 0 13 6 15 9 4 10
6 1 6 -6 1 -14 -3 -18 -8z"/>
<path d="M2613 5069 c-2 -23 3 -25 10 -4 4 8 3 16 -1 19 -4 3 -9 -4 -9 -15z"/>
<path d="M4648 5058 c5 -5 16 -8 23 -6 8 3 3 7 -10 11 -17 4 -21 3 -13 -5z"/>
<path d="M4585 4950 c-3 -6 1 -7 9 -4 18 7 21 14 7 14 -6 0 -13 -4 -16 -10z"/>
<path d="M6720 4776 c0 -2 7 -9 15 -16 13 -11 14 -10 9 4 -5 14 -24 23 -24 12z"/>
<path d="M2697 4749 c7 -7 15 -10 18 -7 3 3 -2 9 -12 12 -14 6 -15 5 -6 -5z"/>
<path d="M1846 4631 c-4 -5 3 -7 14 -4 23 6 26 13 6 13 -8 0 -17 -4 -20 -9z"/>
<path d="M2775 4520 c3 -5 8 -10 11 -10 2 0 4 5 4 10 0 6 -5 10 -11 10 -5 0
-7 -4 -4 -10z"/>
<path d="M1956 4437 c3 -10 9 -15 12 -12 3 3 0 11 -7 18 -10 9 -11 8 -5 -6z"/>
<path d="M4435 4411 c-3 -5 -2 -12 3 -15 5 -3 9 1 9 9 0 17 -3 19 -12 6z"/>
<path d="M5835 4410 c-3 -5 -1 -10 4 -10 6 0 11 5 11 10 0 6 -2 10 -4 10 -3 0
-8 -4 -11 -10z"/>
<path d="M2906 4385 c4 -8 8 -15 10 -15 2 0 4 7 4 15 0 8 -4 15 -10 15 -5 0
-7 -7 -4 -15z"/>
<path d="M6797 4333 c-4 -3 -7 -11 -7 -17 0 -6 5 -5 12 2 6 6 9 14 7 17 -3 3
-9 2 -12 -2z"/>
<path d="M6731 4014 c0 -11 3 -14 6 -6 3 7 2 16 -1 19 -3 4 -6 -2 -5 -13z"/>
<path d="M2150 3830 c0 -5 5 -10 11 -10 5 0 7 5 4 10 -3 6 -8 10 -11 10 -2 0
-4 -4 -4 -10z"/>
<path d="M2170 3790 c0 -5 5 -10 10 -10 6 0 10 5 10 10 0 6 -4 10 -10 10 -5 0
-10 -4 -10 -10z"/>
<path d="M2200 3615 c0 -8 2 -15 4 -15 2 0 6 7 10 15 3 8 1 15 -4 15 -6 0 -10
-7 -10 -15z"/>
<path d="M6730 3600 c-9 -6 -10 -10 -3 -10 6 0 15 5 18 10 8 12 4 12 -15 0z"/>
<path d="M2278 3533 c7 -3 16 -2 19 1 4 3 -2 6 -13 5 -11 0 -14 -3 -6 -6z"/>
<path d="M2273 3409 c-1 -10 2 -19 8 -19 11 0 12 27 1 34 -4 2 -9 -4 -9 -15z"/>
<path d="M2300 3320 c0 -5 5 -10 11 -10 5 0 7 5 4 10 -3 6 -8 10 -11 10 -2 0
-4 -4 -4 -10z"/>
<path d="M6786 3253 c-6 -14 -5 -15 5 -6 7 7 10 15 7 18 -3 3 -9 -2 -12 -12z"/>
<path d="M5884 2449 c-19 -22 -19 -22 4 -8 12 8 22 17 22 21 0 12 -6 9 -26
-13z"/>
<path d="M7240 2326 c0 -2 7 -7 16 -10 8 -3 12 -2 9 4 -6 10 -25 14 -25 6z"/>
<path d="M7370 2280 c0 -5 7 -7 15 -4 8 4 15 8 15 10 0 2 -7 4 -15 4 -8 0 -15
-4 -15 -10z"/>
<path d="M8606 2265 c4 -8 11 -15 16 -15 6 0 5 6 -2 15 -7 8 -14 15 -16 15 -2
0 -1 -7 2 -15z"/>
<path d="M7040 2259 c0 -5 5 -7 10 -4 6 3 10 8 10 11 0 2 -4 4 -10 4 -5 0 -10
-5 -10 -11z"/>
<path d="M7295 2239 c-4 -6 -5 -12 -2 -15 2 -3 7 2 10 11 7 17 1 20 -8 4z"/>
<path d="M5897 2083 c3 -7 9 -10 14 -7 14 8 11 21 -5 21 -8 0 -12 -6 -9 -14z"/>
<path d="M2750 1965 c-10 -12 -10 -15 2 -15 8 0 15 7 15 15 0 8 -1 15 -2 15
-2 0 -8 -7 -15 -15z"/>
<path d="M2740 1750 c0 -5 5 -10 11 -10 5 0 7 5 4 10 -3 6 -8 10 -11 10 -2 0
-4 -4 -4 -10z"/>
<path d="M2762 1680 c0 -14 2 -19 5 -12 2 6 2 18 0 25 -3 6 -5 1 -5 -13z"/>
<path d="M5950 1579 c0 -5 5 -7 10 -4 6 3 10 8 10 11 0 2 -4 4 -10 4 -5 0 -10
-5 -10 -11z"/>
<path d="M3568 1463 c7 -3 16 -2 19 1 4 3 -2 6 -13 5 -11 0 -14 -3 -6 -6z"/>
<path d="M6240 1330 c0 -5 5 -10 11 -10 5 0 7 5 4 10 -3 6 -8 10 -11 10 -2 0
-4 -4 -4 -10z"/>
<path d="M7257 1329 c7 -7 15 -10 18 -7 3 3 -2 9 -12 12 -14 6 -15 5 -6 -5z"/>
</g>
</svg>
